Coordinates
version=1
nRows=21
nColumns=27
inDegrees=yes

Units are S.I. units (second, meters, Newtons, ...)
If the header above contains a line with 'inDegrees', this indicates whether rotational values are in degrees (yes) or radians (no).

endheader
time	pelvis_rotation	pelvis_tilt	pelvis_list	pelvis_tx	pelvis_ty	pelvis_tz	hip_flexion_r	hip_adduction_r	hip_rotation_r	knee_angle_r	knee_rotation_r	knee_adduction_r	knee_angle_r_beta	ankle_angle_r	subtalar_angle_r	mtp_angle_r	hip_flexion_l	hip_adduction_l	hip_rotation_l	knee_angle_l	knee_rotation_l	knee_adduction_l	knee_angle_l_beta	ankle_angle_l	subtalar_angle_l	mtp_angle_l
      3.27500000	      4.40022032	    -28.55870836	      4.35789995	     -0.02802232	      0.55210526	     -1.17751553	    109.71790016	    -44.34781873	      5.69526146	     95.80030058	     -7.62660861	      9.91433194	      1.67203067	     14.91912099	      2.25327250	      0.00000000	    103.20344052	    -33.12614411	      5.63207150	     90.07950221	     -3.94410793	     -9.92745988	      1.57218390	     16.96938375	     14.98044624	      0.00000000
      3.28000000	      4.22168427	    -28.41815186	      4.58727222	     -0.02788927	      0.55074818	     -1.17750525	    110.11113342	    -44.05751204	      6.18846029	     96.03986214	     -7.73276324	      9.91448107	      1.67621181	     14.92435659	      2.24857173	      0.00000000	    103.02264943	    -33.40263260	      5.19327411	     90.25679446	     -4.18468841	     -9.92773629	      1.57527824	     17.05162211	     15.17403793	      0.00000000
      3.28500000	      4.27408036	    -28.32337276	      4.65522912	     -0.02770883	      0.54942184	     -1.17755802	    110.33510187	    -44.12447365	      6.36645617	     96.25263793	     -7.84493635	      9.91460997	      1.67992545	     14.99266695	      2.28182234	      0.00000000	    103.07428911	    -33.34555967	      5.06395283	     90.45216139	     -4.40994666	     -9.92774636	      1.57868803	     17.17221448	     15.16450787	      0.00000000
      3.29000000	      4.12618965	    -28.29939952	      4.22356365	     -0.02761871	      0.54824398	     -1.17752454	    110.02506646	    -44.12051406	      5.68711710	     96.36072078	     -8.08268140	      9.91458785	      1.68181185	     15.07788159	      2.30275010	      0.00000000	    103.57378510	    -33.38541948	      5.61442996	     90.71412193	     -4.53551824	     -9.92797094	      1.58326011	     17.19895677	     15.20652894	      0.00000000
      3.29500000	      4.26819872	    -28.10658460	      4.65210754	     -0.02736985	      0.54678186	     -1.17765233	    110.59661101	    -44.16984082	      6.47416933	     96.65012256	     -8.13513552	      9.91491372	      1.68686286	     15.10807901	      2.35060817	      0.00000000	    103.25129953	    -33.31809041	      5.00920670	     90.87347650	     -4.80207626	     -9.92807782	      1.58604137	     17.33614752	     15.23188751	      0.00000000
      3.30000000	      4.24526206	    -27.98712069	      4.60946809	     -0.02722042	      0.54547359	     -1.17768554	    110.67110596	    -44.18422865	      6.46553379	     96.84196838	     -8.27858677	      9.91495690	      1.69021120	     15.15023136	      2.34770132	      0.00000000	    103.35675928	    -33.30593173	      5.04792477	     91.08242801	     -4.97860814	     -9.92823506	      1.58968826	     17.37017432	     15.23965748	      0.00000000
      3.30500000	      4.23610624	    -27.89120009	      4.67470583	     -0.02703588	      0.54407110	     -1.17774867	    110.90333544	    -44.17165344	      6.67359961	     97.06217542	     -8.38658948	      9.91516631	      1.69405454	     15.23517268	      2.40733166	      0.00000000	    103.41299762	    -33.31850818	      4.91170999	     91.30126873	     -5.21096579	     -9.92830210	      1.59350775	     17.49668898	     15.29125180	      0.00000000
      3.31000000	      4.16252409	    -27.80666875	      4.66933151	     -0.02690458	      0.54268491	     -1.17779394	    111.06510860	    -44.09638429	      6.76839035	     97.26716924	     -8.50363086	      9.91519408	      1.69763236	     15.30061849	      2.38549870	      0.00000000	    103.52192072	    -33.37522865	      4.88668964	     91.52181185	     -5.39740581	     -9.92850131	      1.59735695	     17.56901733	     15.31289726	      0.00000000
      3.31500000	      4.01793954	    -27.78226000	      4.39764766	     -0.02681437	      0.54135337	     -1.17780822	    110.96535171	    -44.03588199	      6.44990298	     97.42072967	     -8.64425024	      9.91495109	      1.70031249	     15.40009944	      2.43061747	      0.00000000	    103.90742733	    -33.43508129	      5.23876454	     91.78208354	     -5.53987843	     -9.92868205	      1.60189955	     17.59400947	     15.32266820	      0.00000000
      3.32000000	      4.02483817	    -27.60758102	      4.72874808	     -0.02660708	      0.53987942	     -1.17791461	    111.44914771	    -43.93950883	      7.10445566	     97.69143869	     -8.69792511	      9.91541425	      1.70503726	     15.39231629	      2.35914087	      0.00000000	    103.65544625	    -33.49115286	      4.71902348	     91.95808498	     -5.81216793	     -9.92879367	      1.60497136	     17.72422845	     15.38176228	      0.00000000
      3.32500000	      4.07648617	    -27.51706419	      4.70068599	     -0.02642443	      0.53844981	     -1.17800016	    111.58620615	    -44.04501222	      7.16577792	     97.89925849	     -8.79651427	      9.91563995	      1.70866440	     15.46728140	      2.39833676	      0.00000000	    103.81622564	    -33.38368931	      4.77456901	     92.19090913	     -5.99924163	     -9.92891279	      1.60903490	     17.80457290	     15.35057939	      0.00000000
      3.33000000	      4.10133076	    -27.41037599	      4.64753349	     -0.02620031	      0.53704833	     -1.17808440	    111.66973191	    -44.13633067	      7.19124613	     98.09949111	     -8.88599461	      9.91590550	      1.71215911	     15.54671395	      2.40262806	      0.00000000	    103.96475969	    -33.30752021	      4.85566382	     92.42095984	     -6.17833109	     -9.92918024	      1.61305005	     17.87666416	     15.34663903	      0.00000000
      3.33500000	      3.92055512	    -27.28769382	      4.78431555	     -0.02606725	      0.53559314	     -1.17814558	    111.96898806	    -43.86458055	      7.58785124	     98.33116107	     -8.94319537	      9.91589059	      1.71620252	     15.57176155	      2.37909333	      0.00000000	    103.89846482	    -33.53371891	      4.54939511	     92.63134514	     -6.43003496	     -9.92927500	      1.61672196	     17.96321449	     15.42653722	      0.00000000
      3.34000000	      3.90918598	    -27.19585194	      4.80526341	     -0.02588253	      0.53413108	     -1.17819966	    112.16967558	    -43.86636101	      7.76445982	     98.55341319	     -9.01366425	      9.91607075	      1.72008155	     15.61688078	      2.39851247	      0.00000000	    104.01038559	    -33.53333077	      4.51649482	     92.85693984	     -6.61705133	     -9.92948787	      1.62065933	     18.02681347	     15.43997487	      0.00000000
      3.34500000	      3.90322501	    -27.09066981	      4.78205141	     -0.02566770	      0.53268672	     -1.17829907	    112.29132973	    -43.89755782	      7.87906127	     98.75872799	     -9.07348680	      9.91622646	      1.72366497	     15.71800241	      2.42140313	      0.00000000	    104.13483780	    -33.50252890	      4.52372641	     93.09169856	     -6.82208562	     -9.92961784	      1.62475665	     18.11524984	     15.44626696	      0.00000000
      3.35000000	      3.80806717	    -27.01311726	      4.78991799	     -0.02547371	      0.53121598	     -1.17835848	    112.49211174	    -43.79639852	      8.06108101	     98.97700133	     -9.13295156	      9.91624605	      1.72747456	     15.72852575	      2.40644894	      0.00000000	    104.24746411	    -33.59912396	      4.48199145	     93.32540887	     -7.01174406	     -9.92978308	      1.62883566	     18.20637729	     15.49272075	      0.00000000
      3.35500000	      3.84023882	    -26.91193452	      4.78405516	     -0.02524939	      0.52976212	     -1.17842579	    112.63872668	    -43.86420617	      8.21012766	     99.19187256	     -9.18308465	      9.91662139	      1.73122477	     15.83820637	      2.44893876	      0.00000000	    104.37792666	    -33.54407027	      4.48552819	     93.55145549	     -7.20388043	     -9.92996183	      1.63278092	     18.26032412	     15.50947699	      0.00000000
      3.36000000	      3.68271019	    -26.92021600	      4.51867298	     -0.02510448	      0.52829383	     -1.17842800	    112.59769424	    -43.78564342	      7.98225799	     99.36905279	     -9.24224399	      9.91666766	      1.73431715	     15.89420747	      2.39871273	      0.00000000	    104.81245061	    -33.64434181	      4.85298450	     93.82770613	     -7.33062209	     -9.93016550	      1.63760240	     18.33869166	     15.56315511	      0.00000000
      3.36500000	      3.75570726	    -26.72018721	      4.74340335	     -0.02476857	      0.52681601	     -1.17850665	    112.91999820	    -43.82440442	      8.48820307	     99.62467350	     -9.27722115	      9.91705668	      1.73877857	     15.98401344	      2.45564245	      0.00000000	    104.64094413	    -33.62914634	      4.51767904	     94.01747132	     -7.55479484	     -9.93035007	      1.64091443	     18.42102504	     15.61696808	      0.00000000
      3.37000000	      3.76725671	    -26.62816193	      4.76011505	     -0.02450607	      0.52533344	     -1.17855218	    113.10924141	    -43.84997274	      8.68976988	     99.84820273	     -9.31595755	      9.91729776	      1.74267989	     16.04134465	      2.46899952	      0.00000000	    104.76027420	    -33.62359484	      4.50409549	     94.24500921	     -7.72504269	     -9.93054054	      1.64488571	     18.49424400	     15.64309413	      0.00000000
      3.37500000	      3.58567634	    -26.55578154	      4.82336912	     -0.02429077	      0.52382827	     -1.17856127	    113.36207491	    -43.59934900	      8.97849944	    100.07973145	     -9.34977561	      9.91745948	      1.74672083	     16.09318260	      2.41185433	      0.00000000	    104.81277906	    -33.87495336	      4.37523900	     94.46992652	     -7.89349532	     -9.93072561	      1.64881126	     18.61761962	     15.75136180	      0.00000000
